HIERARCHY
ROOT Pelvis
{
	OFFSET 0.000000 0.000000 0.000000
	CHANNELS 6 Xposition Yposition Zposition Zrotation Yrotation Xrotation 
	JOINT Left_hip
	{
		OFFSET 0.070241 -0.085575 -0.010474
		CHANNELS 3 Zrotation Yrotation Xrotation
		JOINT Left_knee
		{
			OFFSET 0.032125 -0.356873 -0.000555
			CHANNELS 3 Zrotation Yrotation Xrotation
			JOINT Left_ankle
			{
				OFFSET -0.010961 -0.370212 -0.042278
				CHANNELS 3 Zrotation Yrotation Xrotation
				JOINT Left_foot
				{
					OFFSET 0.023322 -0.052281 0.110104
					CHANNELS 3 Zrotation Yrotation Xrotation
					End Site
					{
						OFFSET 0.000000 0.000000 0.000000
					}
				}
			}
		}
	}
	JOINT Right_hip
	{
		OFFSET -0.068518 -0.084320 -0.007402
		CHANNELS 3 Zrotation Yrotation Xrotation
		JOINT Right_knee
		{
			OFFSET -0.037345 -0.364815 -0.003619
			CHANNELS 3 Zrotation Yrotation Xrotation
			JOINT Right_ankle
			{
				OFFSET 0.013394 -0.370006 -0.039954
				CHANNELS 3 Zrotation Yrotation Xrotation
				JOINT Right_foot
				{
					OFFSET -0.019600 -0.045455 0.113223
					CHANNELS 3 Zrotation Yrotation Xrotation
					End Site
					{
						OFFSET 0.000000 0.000000 0.000000
					}
				}
			}
		}
	}
	JOINT Spine1
	{
		OFFSET -0.002404 0.098129 -0.018169
		CHANNELS 3 Zrotation Yrotation Xrotation
		JOINT Spine2
		{
			OFFSET 0.003989 0.127209 -0.001742
			CHANNELS 3 Zrotation Yrotation Xrotation
			JOINT Spine3
			{
				OFFSET 0.001758 0.046641 0.023475
				CHANNELS 3 Zrotation Yrotation Xrotation
				JOINT Neck
				{
					OFFSET -0.003759 0.194901 -0.039982
					CHANNELS 3 Zrotation Yrotation Xrotation
					JOINT Head
					{
						OFFSET 0.003999 0.063756 0.047665
						CHANNELS 3 Zrotation Yrotation Xrotation
						End Site
						{
							OFFSET 0.000000 0.000000 0.000000
						}
					}
				}
				JOINT Left_collar
				{
					OFFSET 0.071816 0.109048 -0.028973
					CHANNELS 3 Zrotation Yrotation Xrotation
					JOINT Left_shoulder
					{
						OFFSET 0.084027 0.032269 -0.006525
						CHANNELS 3 Zrotation Yrotation Xrotation
						JOINT Left_elbow
						{
							OFFSET 0.243854 -0.013992 -0.025905
							CHANNELS 3 Zrotation Yrotation Xrotation
							JOINT Left_wrist
							{
								OFFSET 0.232156 0.008196 -0.000339
								CHANNELS 3 Zrotation Yrotation Xrotation
								JOINT Left_palm
								{
									OFFSET 0.075377 -0.009461 -0.012494
									CHANNELS 3 Zrotation Yrotation Xrotation
									End Site
									{
										OFFSET 0.000000 0.000000 0.000000
									}
								}
							}
						}
					}
				}
				JOINT Right_collar
				{
					OFFSET -0.073768 0.107001 -0.033755
					CHANNELS 3 Zrotation Yrotation Xrotation
					JOINT Right_shoulder
					{
						OFFSET -0.086837 0.032868 -0.009431
						CHANNELS 3 Zrotation Yrotation Xrotation
						JOINT Right_elbow
						{
							OFFSET -0.236446 -0.012544 -0.018747
							CHANNELS 3 Zrotation Yrotation Xrotation
							JOINT Right_wrist
							{
								OFFSET -0.236110 0.006124 -0.004327
								CHANNELS 3 Zrotation Yrotation Xrotation
								JOINT Right_palm
								{
									OFFSET -0.074800 -0.006875 -0.009610
									CHANNELS 3 Zrotation Yrotation Xrotation
									End Site
									{
										OFFSET 0.000000 0.000000 0.000000
									}
								}
							}
						}
					}
				}
			}
		}
	}
}
MOTION
Frames: 16
Frame Time: 0.100000
0.000000 0.000000 0.000000 177.684303 19.124408 -11.088402 -0.794038 6.026519 2.884169 -0.098131 -6.197791 -2.652869 -3.173176 24.972742 -4.647341 9.886254 -4.680369 0.015369 0.493591 -6.097996 1.531950 -0.394448 6.568260 0.326264 -0.723291 -21.391204 -3.850363 7.038123 6.631808 6.817326 0.505659 2.833347 -2.258540 1.229105 -1.749304 -2.273217 -0.938472 2.659586 -1.914574 -3.494930 -5.206581 9.673058 0.382248 -1.366459 7.231156 -4.963919 8.072935 -10.504330 6.558043 -17.153039 -14.830310 2.558458 9.509940 -0.742548 -7.954075 2.455066 40.810596 -0.635165 -8.618154 -5.096311 9.095036 -2.465224 -7.820057 -10.056269 12.550992 -22.019368 -9.887419 -14.428914 -8.482801 3.006040 -3.822165 39.412229 7.133913 9.479134 -6.618198 
-0.000633 0.000157 -0.002548 177.614991 19.302519 -10.481997 -0.884054 5.903572 2.228003 -0.118144 -6.073892 -3.038436 -3.044480 24.668117 -4.288900 9.564895 -4.461885 0.170527 0.568877 -6.076097 1.246499 -0.617294 6.460430 -0.731475 -0.597773 -21.444769 -3.336148 6.724514 6.507912 6.835626 0.503475 2.819519 -1.842120 1.122075 -1.818417 -2.854923 -0.884877 2.610482 -1.698350 -3.541572 -4.966564 9.574415 0.527402 -1.048216 7.157711 -4.901424 8.072304 -10.709824 5.897025 -16.962010 -14.386446 2.612618 10.277655 -0.716616 -8.241295 2.748686 40.505132 -0.484080 -8.557083 -4.942736 8.827674 -2.782504 -8.010690 -9.448417 12.339538 -21.529998 -9.886998 -13.855401 -8.209940 3.346755 -4.070400 38.950145 7.143810 9.487485 -6.799261 
-0.001432 0.000526 -0.005401 177.573494 18.972391 -9.959822 -0.979145 5.871687 1.748810 -0.067078 -5.902290 -3.479305 -2.944390 24.719906 -4.072022 9.465471 -4.503635 0.185203 0.654389 -5.972527 0.523784 -0.683939 6.543368 -0.884400 -0.364385 -21.408436 -3.116894 6.415386 6.688280 6.769647 0.469995 2.843659 -1.459337 1.070991 -1.718702 -3.182413 -0.820832 2.708228 -1.644355 -3.470849 -4.477838 9.281951 0.730886 -0.496442 7.346530 -4.850487 8.197373 -10.807313 5.724286 -16.787693 -14.192285 2.535888 10.273292 -0.686864 -8.234704 2.741036 40.208685 -0.394056 -8.555900 -4.863781 8.792319 -2.876255 -7.929841 -9.437661 12.477184 -21.608189 -9.766550 -14.002553 -8.284606 3.235488 -4.096730 38.980931 7.049479 9.499046 -6.882278 
-0.003135 0.000822 -0.007592 177.567852 18.858881 -9.729535 -1.179599 5.615166 1.095188 -0.140342 -5.792149 -2.886066 -2.767910 24.859063 -4.232589 9.285657 -4.568612 0.129747 0.555225 -6.018598 0.604023 -0.838250 6.712357 -1.738087 0.037347 -21.444905 -2.760330 5.796021 6.949482 6.539852 0.334955 2.994151 -1.126714 0.993051 -1.809093 -3.379635 -0.771159 2.757878 -1.404601 -3.740792 -4.117251 9.190474 1.022305 0.088722 7.448783 -4.723999 8.048324 -10.738789 5.705682 -16.729771 -14.318099 2.519990 10.054549 -0.619833 -8.199999 2.725589 39.971703 -0.423721 -8.525013 -4.800188 8.690605 -2.879304 -7.863840 -9.150332 12.468157 -21.804530 -9.799366 -13.842962 -8.458945 3.250001 -4.160142 39.009550 7.122810 9.533283 -6.962152 
-0.007709 0.001078 -0.009324 177.517432 19.005269 -9.484155 -1.482306 5.424314 0.422040 -0.311983 -5.677142 -2.188273 -2.646665 24.780784 -4.562963 9.099852 -4.613911 0.108532 0.230516 -6.100003 0.609488 -0.896675 6.742817 -2.277545 0.352172 -21.424066 -2.428264 5.417009 7.143951 6.364039 0.386356 3.093468 -0.941567 0.928452 -1.916274 -3.557892 -0.768078 2.790350 -1.271733 -4.098607 -3.777836 9.225739 1.120490 0.765505 7.601181 -4.824930 7.812002 -10.679162 5.525712 -16.715974 -14.193591 2.451897 9.509199 -0.667185 -8.207727 2.404973 39.317600 -0.599214 -8.544433 -4.749229 8.627035 -2.881483 -7.797791 -8.903018 12.344075 -21.794455 -9.733035 -13.624413 -8.664857 3.253371 -4.057810 38.771552 7.281814 9.635231 -7.095750 
-0.015873 0.001471 -0.010939 177.472121 19.105163 -9.285118 -1.983664 5.223452 0.314020 -0.436234 -5.882927 -2.210464 -2.454740 24.905148 -4.896077 9.011993 -4.743799 0.176113 -0.240129 -6.147361 0.187667 -0.936092 6.745761 -1.761928 0.754044 -21.578321 -2.550026 4.862453 7.438111 6.089052 0.488982 3.086512 -0.687257 0.863749 -1.951394 -3.682504 -0.759687 2.873801 -1.148750 -4.350474 -3.612085 9.059931 1.404202 1.469003 7.677854 -4.887926 7.630856 -10.621201 5.346986 -16.669736 -14.170696 2.420971 9.448974 -0.584003 -8.220483 2.411608 39.137107 -0.703248 -8.623196 -4.808852 8.572229 -2.823778 -7.705998 -8.703729 12.327263 -22.021824 -9.555965 -13.726305 -9.217582 3.439632 -4.077581 38.576931 7.338177 9.737907 -7.230194 
-0.027950 0.002083 -0.012212 177.281869 19.497436 -9.045590 -2.582674 4.902741 0.313566 -0.635073 -6.373926 -2.377523 -2.141061 24.928260 -5.418356 8.723251 -4.764295 0.381663 -0.836759 -6.295590 -0.491229 -0.910264 6.543996 -0.668815 1.028382 -21.815953 -2.838467 4.633597 7.680583 5.920614 0.549948 3.018268 -0.482071 0.891337 -1.995255 -3.843389 -0.701435 2.892015 -1.037181 -4.435775 -3.584152 8.976003 1.734767 2.076604 7.879720 -4.922241 7.443991 -10.554832 5.328089 -16.597589 -14.361572 2.533285 9.103805 -1.116560 -7.995952 2.365003 38.711251 -0.868881 -8.705974 -4.783198 8.532885 -2.853712 -7.582722 -8.470514 12.115806 -22.041626 -9.586939 -13.598944 -9.315392 3.381529 -4.076182 38.617962 7.388556 9.902395 -7.328011 
-0.042793 0.003410 -0.012927 176.963566 20.573463 -9.331103 -2.933612 4.825683 0.742825 -1.405856 -7.584111 -2.020367 -1.986145 24.620642 -6.443896 8.524782 -4.754827 0.158472 -1.638516 -6.551491 -2.233723 -0.449929 6.080444 3.999645 1.445473 -22.385301 -4.713464 3.997489 8.167053 5.688727 0.456806 2.618233 0.140851 0.903821 -2.064049 -3.903647 -0.625671 2.751289 -0.572806 -4.486185 -4.011446 8.986772 2.293432 2.409020 8.034478 -4.801462 7.302873 -10.258445 4.738457 -16.664884 -14.590776 2.774662 7.621508 -2.202931 -7.210465 1.944117 37.124436 -1.558785 -8.819984 -5.033174 8.329284 -3.026881 -7.437574 -7.311539 11.673290 -21.790434 -9.875043 -12.857866 -10.091336 2.918191 -3.440614 36.514185 7.665856 9.953648 -6.924056 
-0.054521 0.007053 -0.012846 177.265630 22.290202 -10.164069 -3.999039 4.303899 2.371218 -1.985306 -9.712623 -2.423022 -1.229377 25.448173 -7.554114 8.894416 -4.859511 0.141980 -2.403041 -6.700785 -9.429896 0.558086 2.917816 19.825608 1.456843 -24.549380 -7.976992 2.675769 9.246198 4.598877 -0.654804 1.200511 2.263500 0.654685 -1.854074 -3.969393 -0.642203 2.342090 0.222695 -4.785473 -4.880508 8.231435 3.758418 3.577856 8.386169 -5.853864 7.282057 -9.606328 2.000197 -16.981750 -14.003415 4.335802 3.971412 -5.553328 -2.166219 0.475442 32.585087 -3.331494 -8.841057 -4.609080 9.361939 -3.545489 -7.267308 -3.188050 11.465738 -20.292001 -10.880972 -9.318019 -13.021713 -0.927305 -0.801734 29.835097 8.874024 9.695505 -4.670349 
-0.062868 0.008061 -0.006972 176.591229 22.847279 -11.181155 -3.668587 4.431466 4.906750 -1.621534 -9.954091 -4.225994 -0.621644 24.317804 -7.382987 8.772731 -3.010095 -1.101198 -0.255150 -4.076697 -16.816872 4.662110 1.843821 29.275100 0.969449 -19.453139 -10.009375 3.198534 8.240861 4.488518 -0.950393 -0.530231 3.903332 0.692574 -1.092833 -2.121834 -1.070237 1.766793 -0.180716 -3.602927 -3.908190 6.731081 3.622020 3.310624 8.091397 -9.968648 8.424541 -9.380839 -8.001293 -17.555471 -8.714730 8.398321 -3.980010 -12.466393 6.733654 -4.298622 22.101133 -4.457178 -7.232716 -4.052451 12.669287 -4.737882 -6.312489 6.921688 11.433086 -14.133594 -13.061010 -0.148262 -17.459760 -9.017856 4.420374 17.487370 9.519119 7.375516 -0.981157 
-0.069177 0.006057 0.010781 175.465140 25.165733 -11.424090 -3.311735 3.632322 5.386439 -0.973662 -8.109798 -2.887408 0.089999 20.212561 -7.841345 6.009557 1.156049 -1.590207 3.348349 -1.050638 -18.982162 3.625897 -0.430907 19.342912 -1.129355 -16.787881 -4.874422 6.206829 4.854806 6.499425 -1.503187 -1.836600 4.914268 1.281932 -1.466253 0.031168 -1.166953 0.333090 -1.323930 -1.460321 -2.368635 4.869725 2.531855 1.798269 6.854024 -15.841506 7.321793 -7.418694 -24.243644 -14.929670 2.883209 9.387571 -11.273012 -11.033507 9.580086 -7.937663 13.718460 -5.316396 -5.709427 -3.183584 17.321890 -5.490709 -4.336235 21.932042 6.324586 -1.877286 -14.307236 16.533724 -9.853030 -13.614925 8.196052 11.609852 11.144540 6.056632 0.960866 
-0.085709 0.001892 0.044376 175.268765 27.812638 -11.023357 -3.537083 2.573715 6.103119 -0.773046 -6.451146 -0.312623 0.424498 16.580989 -9.284974 4.035042 4.391573 -1.747151 5.276390 -0.769054 -16.939097 0.892252 -4.502674 4.391817 -2.193402 -16.048167 6.461540 5.796860 1.617841 6.341942 -1.924323 -2.265124 3.959483 1.837451 -2.496470 2.536299 -1.169171 -0.775460 -2.714667 -1.298186 -2.192717 4.494625 1.976932 0.969293 4.733001 -20.813692 3.535264 -4.249896 -38.266809 -10.784168 15.224639 3.537722 -16.455048 7.710002 -0.725398 -8.877808 20.014446 -6.328172 -6.064546 -5.779018 20.446935 -4.658386 -2.940312 33.350860 -0.481105 7.431870 -7.607700 29.434119 6.425862 -4.838657 8.933277 15.749666 13.755394 7.085160 -0.924920 
-0.111990 -0.003016 0.085331 174.357619 27.633948 -11.752945 -2.318006 3.770680 7.191266 -0.914728 -5.127180 5.110990 -0.334995 14.491513 -11.039149 3.706913 6.190847 -5.478172 6.146128 -0.318535 -13.181554 0.947472 -4.050079 2.802323 -2.911039 -14.601793 2.412666 7.289622 0.152446 7.744757 0.242052 -2.025698 1.677416 1.749507 -2.137365 5.872606 -1.652989 -0.550959 -3.632038 -0.320466 -1.454426 3.530495 0.320821 -1.126428 1.439699 -22.806080 1.050988 -2.724372 -43.294204 -6.785897 23.355066 -7.850927 -34.448559 30.318765 -4.932355 -11.989660 24.771066 -9.838242 -7.948575 -10.772565 20.241418 -2.214447 -0.129069 36.668463 -6.792366 14.885223 8.952243 45.107883 30.486202 -0.939973 12.842285 15.217896 16.389398 8.309631 -2.748160 
-0.133027 -0.013590 0.122168 173.053220 29.036839 -12.289313 0.290465 3.891839 1.180422 -3.402067 -2.322413 21.099002 -2.987006 11.711086 -8.430733 4.749076 6.237127 -12.045777 6.730192 -1.213427 -8.294629 1.762731 -2.953101 -0.566920 -2.631208 -15.169729 -0.132265 5.785031 1.400109 7.897200 1.512229 -1.319161 1.132112 2.138431 -3.051858 3.341050 -1.084791 -0.678388 -1.609032 -1.295028 -2.294069 3.701138 0.140454 -2.078709 -0.562002 -16.825987 -0.169760 -1.872152 -35.685415 -5.282503 26.354551 -49.135798 -57.733870 80.571842 -0.300752 -19.180732 18.109793 -14.590113 -9.441611 -11.814887 13.969100 -1.263795 -0.162641 28.697525 -11.366010 18.774026 59.934277 60.775697 86.382212 -2.498246 18.820446 7.973681 19.584188 9.032801 -3.686796 
-0.150368 -0.023188 0.146971 173.999223 27.274017 -13.034436 3.520476 4.628644 -6.670190 -6.642204 0.363032 38.098414 -8.188503 9.030135 0.165639 7.885181 4.877397 -20.569040 6.215374 -2.072154 -3.671025 1.744980 -0.231317 -2.213655 -0.438690 -15.996699 -1.521770 0.169826 4.941399 5.151782 2.013122 0.607225 2.597055 1.065213 -2.916934 0.735634 -0.805838 0.136556 1.159011 -2.234925 -2.431992 3.418478 2.048773 -4.042598 -2.911182 -9.706290 -0.147670 -1.842009 -24.197916 -5.005863 23.117410 -96.231979 -56.882609 126.858981 9.800059 -27.348059 5.163337 -17.637909 -9.241117 -10.705394 6.910981 1.198303 0.936072 21.090082 -13.056149 18.966079 105.252866 52.587557 130.594454 -11.826507 25.722115 -4.430012 19.765061 7.849433 -2.609153 
-0.170968 -0.033856 0.164917 176.516775 22.846450 -12.484593 4.463984 6.197438 -9.310126 -4.074401 2.921590 33.385597 -6.879884 12.649798 -0.639727 7.652439 1.884257 -19.123195 4.255805 -3.028271 -1.257771 1.186940 2.091724 -2.215436 2.218801 -14.802255 -2.004420 1.353586 7.736983 4.163109 1.004694 2.549720 2.550109 0.420819 -1.873017 1.164262 -1.188339 1.673311 2.135792 -2.292941 -1.531622 1.008709 2.436949 -4.957715 -2.416084 -8.459679 -0.894093 -0.704866 -18.192492 -2.641323 24.787155 -109.264214 -47.893505 138.937322 42.744138 -32.279440 -14.833934 -15.570914 -5.715184 -5.780884 7.138036 4.940947 3.864155 19.091238 -11.711017 20.191060 113.863818 43.260483 137.128745 -43.001726 29.059232 -18.164802 16.860846 4.120794 1.753063 
